<?xml version="1.0" encoding="UTF-8"?>
<!-- Generator: visioncortex VTracer 0.6.3 -->
<svg version="1.1" xmlns="http://www.w3.org/2000/svg" width="74" height="87">
<path d="M0 0 C24.42 0 48.84 0 74 0 C74 28.71 74 57.42 74 87 C49.58 87 25.16 87 0 87 C0 58.29 0 29.58 0 0 Z " fill="#466F1A" transform="translate(0,0)"/>
<path d="M0 0 C9 0 9 0 14.51 2.96 C15.38 3.41 15.38 3.41 16.26 3.88 C18.08 4.84 19.88 5.83 21.69 6.81 C22.91 7.46 24.13 8.11 25.35 8.76 C28.58 10.48 31.8 12.22 35 14 C35.95 14.52 36.9 15.05 37.88 15.58 C38.58 16.05 39.28 16.52 40 17 C40 17.66 40 18.32 40 19 C36.13 22.4 32.68 25.06 27.44 24.88 C26.63 24.59 25.83 24.3 25 24 C25 23.34 25 22.68 25 22 C24.34 21.92 23.68 21.84 23 21.75 C20.28 21.07 18.28 20.22 15.81 18.95 C15.1 18.59 14.38 18.22 13.64 17.85 C13.1 17.57 12.56 17.29 12 17 C12.03 17.64 12.06 18.28 12.1 18.94 C12.22 21.86 12.3 24.77 12.38 27.69 C12.45 29.2 12.45 29.2 12.53 30.74 C12.67 38.1 12.67 38.1 10.64 40.82 C8.98 42.21 8.98 42.21 6 44 C6.98 44.6 7.96 45.2 8.98 45.82 C11.15 47.64 11.91 48.58 12.5 51.38 C12.59 54.21 12.52 56.98 12.38 59.81 C12.35 60.79 12.32 61.77 12.29 62.78 C12.22 65.19 12.12 67.59 12 70 C13.11 69.41 14.22 68.82 15.36 68.21 C16.82 67.46 18.29 66.7 19.75 65.94 C20.48 65.55 21.21 65.16 21.96 64.76 C22.67 64.39 23.38 64.03 24.11 63.65 C25.08 63.14 25.08 63.14 26.08 62.62 C28.47 61.85 29.66 62.15 32 63 C33.62 63.97 35.2 64.99 36.75 66.06 C37.55 66.61 38.35 67.16 39.17 67.72 C39.78 68.14 40.38 68.57 41 69 C38.16 72.08 35.47 74.03 31.75 75.95 C30.75 76.46 29.75 76.98 28.72 77.52 C27.68 78.05 26.63 78.58 25.56 79.12 C24.53 79.66 23.49 80.2 22.42 80.75 C19.62 82.19 16.83 83.63 14 85 C12.87 85.58 12.87 85.58 11.73 86.17 C9 87 9 87 0 87 C0 58.29 0 29.58 0 0 Z " fill="#200D03" transform="translate(0,0)"/>
<path d="M0 0 C0 21.45 0 42.9 0 65 C-10.07 59.41 -10.07 59.41 -14 56.44 C-18.82 52.85 -23.71 49.38 -28.62 45.94 C-34.54 41.78 -40.37 37.55 -46 33 C-42.15 28.89 -38.02 25.74 -33.38 22.56 C-25.87 17.35 -18.5 11.99 -11.16 6.55 C-10.4 5.98 -9.64 5.42 -8.85 4.84 C-8.18 4.34 -7.51 3.84 -6.81 3.32 C-2.25 0 -2.25 0 0 0 Z " fill="#FDFEFB" transform="translate(74,11)"/>
<path d="M0 0 C2.05 0.03 4.1 0.07 6.15 0.1 C7.01 4.01 7.18 7.2 6.15 11.1 C2.93 14.35 -0.87 16.51 -4.78 18.82 C-8.6 21.18 -12.17 23.88 -15.79 26.54 C-17.31 27.64 -18.84 28.75 -20.37 29.86 C-21.11 30.4 -21.86 30.94 -22.63 31.49 C-28.02 35.39 -33.43 39.24 -38.85 43.1 C-38.19 44.09 -37.53 45.08 -36.85 46.1 C-36.85 47.09 -36.85 48.08 -36.85 49.1 C-35.36 49.59 -35.36 49.59 -33.85 50.1 C-32.16 51.54 -32.16 51.54 -30.85 53.1 C-30.85 53.76 -30.85 54.42 -30.85 55.1 C-31.84 55.1 -32.83 55.1 -33.85 55.1 C-33.85 56.09 -33.85 57.08 -33.85 58.1 C-33.19 58.76 -32.53 59.42 -31.85 60.1 C-32.18 61.09 -32.51 62.08 -32.85 63.1 C-36.51 61.43 -39.68 59.22 -42.97 56.91 C-43.82 56.32 -43.82 56.32 -44.69 55.71 C-46.41 54.51 -48.13 53.3 -49.85 52.1 C-50.86 51.39 -51.88 50.68 -52.92 49.95 C-55.23 48.33 -57.54 46.72 -59.85 45.1 C-58.49 41.93 -57.16 40.29 -54.35 38.32 C-53.63 37.81 -52.92 37.31 -52.19 36.79 C-51.42 36.25 -50.64 35.71 -49.85 35.16 C-48.2 33.99 -46.55 32.83 -44.91 31.66 C-44.06 31.07 -43.22 30.47 -42.35 29.86 C-38.52 27.16 -34.71 24.41 -30.91 21.66 C-30.18 21.14 -29.46 20.61 -28.71 20.07 C-22.88 15.86 -17.08 11.61 -11.29 7.35 C-10.04 6.43 -10.04 6.43 -8.78 5.5 C-8.01 4.94 -7.25 4.38 -6.47 3.8 C-5.45 3.05 -5.45 3.05 -4.42 2.29 C-1.51 0.08 -1.51 0.08 0 0 Z " fill="#436D18" transform="translate(67.84765625,-0.09765625)"/>
<path d="M0 0 C19.14 0 38.28 0 58 0 C52.37 5.63 52.37 5.63 48.99 8.09 C48.24 8.64 47.49 9.19 46.72 9.76 C45.93 10.33 45.13 10.91 44.31 11.5 C43.48 12.11 42.64 12.72 41.78 13.35 C39.19 15.24 36.6 17.12 34 19 C33.21 19.57 32.41 20.15 31.6 20.74 C29.32 22.39 27.03 24.04 24.75 25.69 C24.02 26.22 23.29 26.75 22.53 27.29 C18.87 29.93 15.21 32.56 11.54 35.19 C10.15 36.19 8.76 37.19 7.38 38.19 C6.73 38.65 6.08 39.1 5.42 39.57 C3.91 40.67 2.45 41.83 1 43 C1 43.66 1 44.32 1 45 C2.82 46.4 4.71 47.72 6.62 49 C7.81 49.8 9 50.61 10.18 51.41 C11.11 52.04 11.11 52.04 12.07 52.68 C15.32 54.9 18.54 57.16 21.75 59.44 C22.36 59.86 22.97 60.29 23.59 60.72 C27.88 63.77 27.88 63.77 29 66 C27.89 65.54 27.89 65.54 26.75 65.06 C25.84 64.71 24.94 64.36 24 64 C23.43 63.74 22.86 63.48 22.27 63.22 C18.66 62.87 15.95 64.75 12.88 66.44 C6.21 70 6.21 70 4 70 C4 69.39 4 68.78 4 68.15 C3.99 65.37 3.93 62.59 3.88 59.81 C3.88 58.37 3.88 58.37 3.88 56.9 C3.85 51.71 3.85 51.71 1.61 47.21 C-0.19 45.64 -0.19 45.64 -3 44 C0.75 40.12 0.75 40.12 3 39 C3.33 31.74 3.66 24.48 4 17 C8.52 18.51 12.67 20.09 17 22 C17 22.66 17 23.32 17 24 C21.22 24.51 23.42 23.98 26.75 21.5 C27.32 21.04 27.89 20.57 28.48 20.09 C30 19 30 19 32 19 C29.55 16.21 26.96 14.83 23.63 13.22 C22.06 12.45 22.06 12.45 20.45 11.67 C18.24 10.6 16.03 9.54 13.82 8.47 C12.77 7.96 11.72 7.44 10.63 6.91 C9.67 6.45 8.71 5.98 7.72 5.51 C5 4 5 4 0 0 Z " fill="#F9FAF3" transform="translate(8,0)"/>
<path d="M0 0 C3.44 1.26 6.23 2.7 9.18 4.86 C9.94 5.42 10.71 5.98 11.5 6.55 C12.28 7.13 13.07 7.71 13.88 8.31 C15.43 9.45 16.99 10.6 18.55 11.74 C19.3 12.29 20.05 12.84 20.82 13.4 C22.88 14.91 24.97 16.39 27.07 17.86 C28.52 18.92 28.52 18.92 30 20 C30 20.33 30 20.66 30 21 C10.86 21 -8.28 21 -28 21 C-25.3 18.3 -22.08 16.96 -18.69 15.31 C-11.36 11.71 -4.16 7.92 3 4 C2.01 2.68 1.02 1.36 0 0 Z " fill="#FCFDF9" transform="translate(37,66)"/>
<path d="M0 0 C1.62 0.97 3.2 1.99 4.75 3.06 C5.55 3.61 6.35 4.16 7.17 4.72 C7.78 5.14 8.38 5.57 9 6 C6.16 9.08 3.47 11.03 -0.25 12.95 C-1.75 13.72 -1.75 13.72 -3.28 14.52 C-4.32 15.05 -5.37 15.58 -6.44 16.12 C-7.99 16.93 -7.99 16.93 -9.58 17.75 C-22.27 24.29 -22.27 24.29 -27.81 24.12 C-28.6 24.11 -29.39 24.09 -30.21 24.07 C-30.8 24.05 -31.39 24.02 -32 24 C-32.29 20.95 -32.41 18.05 -32 15 C-28.68 11.08 -24.83 10.14 -20 9 C-20 8.34 -20 7.68 -20 7 C-17.42 5.63 -14.84 4.28 -12.25 2.94 C-11.52 2.55 -10.79 2.16 -10.04 1.76 C-9.33 1.39 -8.62 1.03 -7.89 0.65 C-6.92 0.14 -6.92 0.14 -5.92 -0.38 C-3.53 -1.15 -2.34 -0.85 0 0 Z " fill="#51260E" transform="translate(32,63)"/>
<path d="M0 0 C8.38 -1.13 14.58 2.93 21.69 6.81 C22.91 7.46 24.13 8.11 25.35 8.76 C28.58 10.48 31.8 12.22 35 14 C35.95 14.52 36.9 15.05 37.88 15.58 C38.58 16.05 39.28 16.52 40 17 C40 17.66 40 18.32 40 19 C36.13 22.4 32.68 25.06 27.44 24.88 C26.63 24.59 25.83 24.3 25 24 C25 23.34 25 22.68 25 22 C24.34 21.92 23.68 21.84 23 21.75 C19.01 20.75 15.61 18.93 12 17 C12 16.34 12 15.68 12 15 C8.41 13.13 4.72 11.57 1 10 C0.67 11.32 0.34 12.64 0 14 C0 9.38 0 4.76 0 0 Z " fill="#4D1F06" transform="translate(0,0)"/>
<path d="M0 0 C0.66 0.33 1.32 0.66 2 1 C1.67 1.66 1.34 2.32 1 3 C0.34 3 -0.32 3 -1 3 C-0.67 3.66 -0.34 4.32 0 5 C2.02 5.65 2.02 5.65 4 6 C4 6.99 4 7.98 4 9 C5.32 9.33 6.64 9.66 8 10 C5.69 11.65 3.38 13.3 1 15 C1.99 16.48 1.99 16.48 3 18 C3 18.99 3 19.98 3 21 C3.99 21.33 4.98 21.66 6 22 C7.69 23.44 7.69 23.44 9 25 C9 25.66 9 26.32 9 27 C8.01 27 7.02 27 6 27 C6 27.99 6 28.98 6 30 C6.66 30.66 7.32 31.32 8 32 C7.67 32.99 7.34 33.98 7 35 C3.34 33.33 0.17 31.12 -3.12 28.81 C-3.69 28.42 -4.26 28.02 -4.84 27.61 C-6.56 26.41 -8.28 25.21 -10 24 C-11.01 23.29 -12.03 22.58 -13.07 21.85 C-15.38 20.24 -17.69 18.62 -20 17 C-18.57 13.53 -16.92 11.91 -13.87 9.77 C-13.06 9.19 -12.26 8.62 -11.43 8.03 C-10.58 7.44 -9.74 6.85 -8.88 6.25 C-8.03 5.65 -7.18 5.05 -6.3 4.43 C-4.21 2.94 -2.11 1.47 0 0 Z " fill="#578E1B" transform="translate(28,28)"/>
<path d="M0 0 C0.33 0.99 0.66 1.98 1 3 C1.99 3 2.98 3 4 3 C3.67 4.65 3.34 6.3 3 8 C1.74 8.04 0.48 8.08 -0.81 8.12 C-3.02 8.33 -3.02 8.33 -5 9 C-6.85 11.78 -6.85 11.78 -8 15 C-9.63 17.38 -9.63 17.38 -12 19 C-15.03 19.33 -17.97 19.23 -21 19 C-21.29 15.95 -21.41 13.05 -21 10 C-17.68 6.08 -13.83 5.14 -9 4 C-9 3.34 -9 2.68 -9 2 C-5.87 0.14 -3.63 -0.2 0 0 Z " fill="#4D1C02" transform="translate(21,68)"/>
<path d="M0 0 C2.56 1.53 4.93 3.28 7.31 5.06 C7.96 5.53 8.6 6.01 9.27 6.49 C10.85 7.66 12.43 8.83 14 10 C12.88 12.97 11.78 15.33 10 18 C8.68 18 7.36 18 6 18 C5.67 15.69 5.34 13.38 5 11 C3.68 11.99 2.36 12.98 1 14 C0.4 13.36 -0.2 12.72 -0.81 12.06 C-2.91 9.8 -2.91 9.8 -6 9 C-5.67 7.68 -5.34 6.36 -5 5 C-5.66 4.67 -6.32 4.34 -7 4 C-7 2.68 -7 1.36 -7 0 C-4.17 -1.42 -3.03 -0.94 0 0 Z " fill="#385D17" transform="translate(60,66)"/>
<path d="M0 0 C6.46 -0.45 9.61 0.41 15 4 C14.34 4.66 13.68 5.32 13 6 C9.38 5.62 9.38 5.62 6 5 C6 5.66 6 6.32 6 7 C7.32 7.66 8.64 8.32 10 9 C10 9.66 10 10.32 10 11 C10.99 11.33 11.98 11.66 13 12 C12.01 12.5 12.01 12.5 11 13 C11.66 13.33 12.32 13.66 13 14 C13 14.66 13 15.32 13 16 C14.65 15.67 16.3 15.34 18 15 C18 15.99 18 16.98 18 18 C17.34 18.33 16.68 18.66 16 19 C13.88 18.06 13.88 18.06 12 17 C12 16.34 12 15.68 12 15 C8.41 13.13 4.72 11.57 1 10 C0.67 11.32 0.34 12.64 0 14 C0 9.38 0 4.76 0 0 Z " fill="#512A13" transform="translate(0,0)"/>
<path d="M0 0 C2.02 0.07 4.04 0.13 6.05 0.2 C6.14 1.99 6.19 3.78 6.24 5.57 C6.28 6.57 6.31 7.57 6.35 8.59 C6.25 9.45 6.15 10.31 6.05 11.2 C3.05 13.2 3.05 13.2 0.37 12.82 C-0.4 12.61 -1.16 12.41 -1.95 12.2 C-1.95 11.54 -1.95 10.88 -1.95 10.2 C-2.61 10.2 -3.27 10.2 -3.95 10.2 C-3.95 11.19 -3.95 12.18 -3.95 13.2 C-4.61 12.87 -5.27 12.54 -5.95 12.2 C-5.95 10.88 -5.95 9.56 -5.95 8.2 C-5.29 7.87 -4.63 7.54 -3.95 7.2 C-3.99 6.41 -4.03 5.63 -4.07 4.82 C-3.92 1.65 -3.31 0.33 0 0 Z " fill="#365919" transform="translate(67.9453125,-0.1953125)"/>
<path d="M0 0 C0.66 0.33 1.32 0.66 2 1 C1.55 1.43 1.09 1.87 0.62 2.31 C-1.2 4.11 -1.2 4.11 -3 7 C-4.95 7.51 -4.95 7.51 -7.12 7.69 C-8.4 7.79 -9.68 7.89 -11 8 C-10.73 10.44 -10.73 10.44 -10 13 C-9.01 13.66 -8.02 14.32 -7 15 C-7 15.66 -7 16.32 -7 17 C-6.34 17.33 -5.68 17.66 -5 18 C-7.41 19.2 -8.95 19.1 -11.62 19.06 C-12.85 19.05 -12.85 19.05 -14.1 19.04 C-14.73 19.02 -15.35 19.01 -16 19 C-16.29 15.95 -16.41 13.05 -16 10 C-12.68 6.08 -8.83 5.14 -4 4 C-4 3.34 -4 2.68 -4 2 C-2.12 0.94 -2.12 0.94 0 0 Z " fill="#532E17" transform="translate(16,68)"/>
<path d="M0 0 C0 2.64 0 5.28 0 8 C3.26 7.65 4.02 6.98 6.25 4.44 C6.83 3.63 7.41 2.83 8 2 C8 4.97 8 7.94 8 11 C2.38 11.57 -0.36 10.56 -4.71 7.29 C-6 6 -6 6 -6 4 C-5.34 4 -4.68 4 -4 4 C-3.67 3.01 -3.34 2.02 -3 1 C-1 0 -1 0 0 0 Z " fill="#315912" transform="translate(66,76)"/>
<path d="M0 0 C6.46 -0.45 9.61 0.41 15 4 C14.34 4.66 13.68 5.32 13 6 C9.38 5.62 9.38 5.62 6 5 C6 4.34 6 3.68 6 3 C3.03 5.48 3.03 5.48 0 8 C0 5.36 0 2.72 0 0 Z " fill="#4E2B15" transform="translate(0,0)"/>
<path d="M0 0 C0.66 0 1.32 0 2 0 C2.33 0.66 2.66 1.32 3 2 C5.58 2.69 5.58 2.69 8.56 3.12 C9.57 3.29 10.59 3.46 11.63 3.63 C12.8 3.81 12.8 3.81 14 4 C14 4.66 14 5.32 14 6 C8.25 7.12 8.25 7.12 6 6 C6 5.34 6 4.68 6 4 C4.82 3.81 4.82 3.81 3.62 3.62 C1 3 1 3 -1 1 C-0.67 0.67 -0.34 0.34 0 0 Z " fill="#61422C" transform="translate(19,18)"/>
<path d="M0 0 C0.33 0 0.66 0 1 0 C1 2.97 1 5.94 1 9 C-0.98 9 -2.96 9 -5 9 C-3.35 6.03 -1.7 3.06 0 0 Z " fill="#F7FBF1" transform="translate(73,78)"/>
<path d="M0 0 C2.4 2.88 4.47 5.56 6 9 C4.02 9 2.04 9 0 9 C0 6.03 0 3.06 0 0 Z " fill="#FBF9F8" transform="translate(0,78)"/>
<path d="M0 0 C1.98 0 3.96 0 6 0 C4.56 3.37 2.67 5.51 0 8 C0 5.36 0 2.72 0 0 Z " fill="#FAF6EF" transform="translate(0,0)"/>
<path d="M0 0 C1.98 0 3.96 0 6 0 C6 2.64 6 5.28 6 8 C1.12 3.38 1.12 3.38 0 0 Z " fill="#F4FAEB" transform="translate(68,0)"/>
<path d="M0 0 C1.98 0.66 3.96 1.32 6 2 C3.38 4.15 1.36 5.4 -2 6 C-2.33 5.01 -2.66 4.02 -3 3 C-2.34 3 -1.68 3 -1 3 C-0.67 2.01 -0.34 1.02 0 0 Z " fill="#613F28" transform="translate(14,79)"/>
<path d="M0 0 C0.66 0 1.32 0 2 0 C2 0.66 2 1.32 2 2 C2.66 2.66 3.32 3.32 4 4 C-1.27 7.22 -1.27 7.22 -3 8 C-3.66 7.67 -4.32 7.34 -5 7 C-4.67 6.34 -4.34 5.68 -4 5 C-3.01 5 -2.02 5 -1 5 C-0.67 3.35 -0.34 1.7 0 0 Z " fill="#5F3F29" transform="translate(25,73)"/>
<path d="M0 0 C2.97 0.5 2.97 0.5 6 1 C6 1.66 6 2.32 6 3 C6.99 3 7.98 3 9 3 C8.67 3.99 8.34 4.98 8 6 C6.66 5.19 5.33 4.38 4 3.56 C3.26 3.11 2.52 2.66 1.75 2.19 C1.17 1.8 0.59 1.41 0 1 C0 0.67 0 0.34 0 0 Z " fill="#4A632F" transform="translate(60,81)"/>
<path d="M0 0 C0 3 0 3 -1 6 C-0.34 6.33 0.32 6.66 1 7 C0.67 7.66 0.34 8.32 0 9 C-1.65 7.35 -3.3 5.7 -5 4 C-3.35 2.68 -1.7 1.36 0 0 Z " fill="#E4F7C8" transform="translate(33,39)"/>
<path d="M0 0 C3 1 3 1 4.19 3.06 C4.46 3.7 4.72 4.34 5 5 C1.48 5 0.63 4.18 -2 2 C-1.34 1.34 -0.68 0.68 0 0 Z " fill="#425E28" transform="translate(66,0)"/>
<path d="M0 0 C0.33 0.99 0.66 1.98 1 3 C1.66 3.33 2.32 3.66 3 4 C1.02 4.66 -0.96 5.32 -3 6 C-2.62 3.56 -2.62 3.56 -2 1 C-1.34 0.67 -0.68 0.34 0 0 Z " fill="#5A3822" transform="translate(32,70)"/>
</svg>
